<?xml version="1.0" encoding="utf-8"?>
<!-- Generator: Adobe Illustrator 23.0.1, SVG Export Plug-In . SVG Version: 6.00 Build 0)  -->
<svg version="1.1" id="Layer_1" xmlns="http://www.w3.org/2000/svg" xmlns:xlink="http://www.w3.org/1999/xlink" x="0px" y="0px"
	 viewBox="0 0 402 398.4" style="enable-background:new 0 0 402 398.4;" xml:space="preserve">
<style type="text/css">
	.st0{fill:#CCCCCC;}
</style>
<g>
	<g>
		<path class="st0" d="M381.3,178.5H20.7C9.3,178.5,0,187.7,0,199.2c0,11.4,9.3,20.7,20.7,20.7h360.6c11.4,0,20.7-9.3,20.7-20.7
			C402,187.7,392.7,178.5,381.3,178.5z"/>
	</g>
</g>
<g>
	<g>
		<path class="st0" d="M49.9,199.2L211.8,37.3c8.1-8.1,8.1-21.2,0-29.2c-8.1-8.1-21.2-8.1-29.2,0L6.1,184.5
			c-8.1,8.1-8.1,21.2,0,29.2l176.5,176.5c4,4,9.3,6.1,14.6,6.1s10.6-2,14.6-6.1c8.1-8.1,8.1-21.2,0-29.2L49.9,199.2z"/>
	</g>
</g>
</svg>
