<svg xmlns="http://www.w3.org/2000/svg" viewBox="0 0 207.54 210.8"><defs><style>.cls-1{fill:#3fab3c;}.cls-1,.cls-2{fill-rule:evenodd;}.cls-2{fill:#5c3085;}</style></defs><title>Asset 1</title><g id="Layer_2" data-name="Layer 2"><g id="Layer_1-2" data-name="Layer 1"><path class="cls-1" d="M62.74,85.89c-1.41-2.57-2.83-5.16-4.27-7.84C55.29,72.11,52.4,67.67,49,62.22c-1-1.53-2.51-1.42-1.58.77,3.19,7.55,7.65,15.48,9.52,19.08,1,2,2.06,4,3.1,6,.92-.71,1.82-1.44,2.72-2.17m24.17,45.87L75,108.82l-6.3-11.9-.19-.33-2.37,3.16.12.24c6.55,12.52,13.25,25.21,19.86,37.91l0-.2C86.43,135.64,86.69,133.65,86.91,131.76ZM171.5,81.24c8.93,18.09,23.47,47.5,29.64,64.49,2.92,8,1.87,10-.16,13.71l-1.72,2.11c-5.48,6.13-11.9,12.33-18.93,16.88-17.54,11.34-31.28,15.63-51.79,20.36-4.86,1.13-8.34.53-10.23-4.39-2.84-.27-3.68-.32-4.29-.79,2.59,5.5,5.17,9.31,11.73,9,14.86-.7,40-11.07,51.17-17.85,8.84-5.36,18.79-13,25.63-20.48,1.28-1.41,2.25-2.7,3.38-4,3.86-4.47-.15-11.12-2.58-16.85-4.5-10.63-10-23-15-33.38L173.75,81C167.34,68.72,163.44,64.89,171.5,81.24Z"/><path class="cls-1" d="M106.51,32.51A17.48,17.48,0,1,0,124,50a17.47,17.47,0,0,0-17.48-17.48m33.15,42.11c20.64-19.09-3.76-2.75-20.79-.65-18.8,2.32-31.14.18-57.11-18.39-7.87-6.23-19.46-13.21-6.49,3.07C82.75,92.88,93.72,107.51,93.2,120c1,23.68-28.55,148.19,4.79,59.18,11.07-29.56,25.14-40.79,42.08-43.91C157.58,132,177.79,140,154.35,125,134.32,112.19,115.7,96.77,139.66,74.62Z"/><path class="cls-2" d="M58.76,89l-2.68-5c-1.81-3.34-3.66-6.65-5.52-10.13-1.77-3.3-4-6.85-5.54-10.24-2.13-4.81-4.94-9.22-5.86-15.94-.84-6.11.11-6,2.31-9-3,1.37-4.46,2.62-5.27,5.29C34,51.26,45.68,71.51,49,78c2.26,4.36,4.55,8.77,6.86,13.19,1-.68,1.93-1.38,2.9-2.11"/><path class="cls-2" d="M120.12,191.81l-.45,0M85.74,140.6,67.07,104.69l-1.59-3c-.1-.2-.25-.5-.36-.7l-2.38,3.26c.17.32.33.67.5,1C70.49,119.35,77.86,133.05,85,147,85.25,144.79,85.48,142.66,85.74,140.6Zm73.67,18.64c-.13,1.56-3.15,2.64-4.63,3.48-1.7,1-3.66,1.91-5.26,2.77-1.86,1-3.6,1.88-5.45,2.83-.79.4-2.12,1.13-3.3.77a2.46,2.46,0,0,1-1.4-2.48c.25-2.08,7.77-4.94,9.92-6.26C151.15,159.2,159.88,153.68,159.41,159.24ZM153.7,76.81c5.28,12,10.2,22.47,16.39,35.15,3.7,7.57,9.42,18.48,6.39,24.54-6.75,13.49-30.31,22.58-47.19,29.4-9.59,3.29-16.61,4.73-22.47,2.73l-.14.28c.49.8,1,1.6,1.52,2.39,4,6.15,5.9,11.95,13.22,11.43a60.77,60.77,0,0,0,8.65-1.66c19.68-4.93,42.78-21.65,52.14-26.35l.32,1.24c-13.56,16.25-30.88,25.35-51.11,32.81a46.49,46.49,0,0,1-11.3,3h0l-.45,0h-.23l-.65,0h0c-.51,0-1,0-1.46,0h0a12,12,0,0,1-1.36-.07h0l-.38,0h0l-.18,0h0l-.37-.05h0l-.18,0h0l-.18,0h0l-.17,0h0l-.36-.08h0l-.17-.05h0l-.18,0h0a10.58,10.58,0,0,1-1.52-.54l-.33-.16h0l-.17-.08h0l-.16-.08h0l-.17-.09h0l-.16-.09c-.27-.16-.55-.33-.82-.51h0l-.49-.35h0c-.27-.2-.54-.41-.81-.64h0l-.17-.14h0l-.16-.14h0l-.17-.15-.17-.15h0l-.29-.29h0l-.3-.3h0c-.1-.1-.2-.2-.29-.31h0l-.29-.33h0c-.1-.11-.2-.23-.29-.35h0c-.1-.11-.19-.23-.29-.35l-.28-.38c-.1-.12-.19-.25-.29-.38l-.27-.4h0c-.1-.13-.19-.27-.28-.41l-.28-.42-.27-.43-.27-.45-.27-.45-.26-.46h0c-.09-.16-.18-.32-.26-.48h0c-.09-.16-.18-.32-.26-.48-.18-.32-.35-.65-.52-1h0c-.08-.16-.17-.33-.25-.5h0c-.09-.17-.17-.34-.25-.51h0l-.22-.45c-.17.49-.34,1-.52,1.49l1.23,2.52c4.16,8.59,5.77,15.65,14.61,15.24,14.85-.71,36.06-10.94,47.25-17.73,8.84-5.35,18.79-13,25.63-20.48,1.28-1.4,2.25-2.7,3.39-4,3.86-4.47-.15-11.12-2.58-16.86-4.51-10.63-10-23-15-33.38L149.33,52.59c-2.5-5.74-5.17-11.57-8.55-17.78-2.24-4.11-4.1-7.49-4.81-8.73-3-5.29-5.59-10.29-8.54-15.43S121.07.29,115.4,0C106.64-.43,74,15.86,64.5,21.81c-1.59,1-12.13,7.57-13.56,9.23-.43.5-.18.13-.48.71,10-5.82,61-34.35,69.69-26.82-2.16,4.17-1,7,.88,10.87C109,9.65,93.43,20.77,83.76,26,78.9,28.63,65.6,37.27,61,41.88c.49.3.19.22.79.39,10.44,1.29,29.55-30,60.4-19.68a6.6,6.6,0,0,1,3,1.94,85.4,85.4,0,0,0,5.58,10.6C140.54,50.65,146.11,59.61,153.7,76.81Z"/><path class="cls-2" d="M32.24,81.11A10.21,10.21,0,1,1,22,91.32,10.21,10.21,0,0,1,32.24,81.11M7.37,139.81c14.29-14,17.14-25.06,7.86-33.11-15.55-13.48,2.19-1.6,12.14-.37,11,1.35,22.67-5.24,35.17-15.41,4.22-3.34,11.1-10.56,5.58-1.15a31.29,31.29,0,0,1-3,4.41C50,112.88,44,116.62,42.35,133.18c-.45,3.35.83,13.15,2.15,23.06.23,1.69.51,3.61.79,5.63.73,5.27,1.53,9.2,1.31,13.38-.13,2.41-1.7,3.16-3.93-2.24-2-4.86-4.71-10.77-7.14-15.49-5.82-11.3-14.1-19.05-28.1-12.16C-5.94,151.31,1.71,144.72,7.37,139.81Z"/></g></g></svg>