<?xml version="1.0" encoding="utf-8"?>
<!-- Generator: Adobe Illustrator 23.0.1, SVG Export Plug-In . SVG Version: 6.00 Build 0)  -->
<svg version="1.1" id="Capa_1" xmlns="http://www.w3.org/2000/svg" xmlns:xlink="http://www.w3.org/1999/xlink" x="0px" y="0px"
	 viewBox="0 0 32 32" style="enable-background:new 0 0 32 32;" xml:space="preserve">
<style type="text/css">
	.st0{fill:#4ab458;}
</style>
<g>
	<g>
		<path class="st0" d="M29.7,13.9L27,14.5V23c0,2.7-3,5-11,5S5,25.7,5,23v-8.5l-2.7-0.6C1,13.6,0,12.4,0,11s1-2.6,2.3-2.9l13-3
			C15.6,5,15.8,5,16,5c0.2,0,0.4,0,0.7,0.1l13,3C31,8.4,32,9.6,32,11S31,13.6,29.7,13.9z M25,15l-8.3,1.9C16.4,17,16.2,17,16,17
			s-0.4,0-0.7-0.1L7,15v8c0,1.1,3,3,9,3s9-1.9,9-3V15z M29.2,12c0.5-0.1,0.8-0.5,0.8-1s-0.3-0.9-0.8-1l-13-3L16,7l-0.2,0l-13,3
			C2.3,10.1,2,10.5,2,11c0,0.5,0.3,0.9,0.8,1l13,3l0.2,0l0.2,0L29.2,12z"/>
	</g>
</g>
</svg>
