<?xml version="1.0" encoding="utf-8"?>
<!-- Generator: Adobe Illustrator 23.0.1, SVG Export Plug-In . SVG Version: 6.00 Build 0)  -->
<svg version="1.1" id="Capa_1" xmlns="http://www.w3.org/2000/svg" xmlns:xlink="http://www.w3.org/1999/xlink" x="0px" y="0px"
	 viewBox="0 0 512 512" style="enable-background:new 0 0 512 512;" xml:space="preserve">
<style type="text/css">
	.st0{fill:#4ab458;}
</style>
<path class="st0" d="M512,95.3V15c0-8.3-6.7-15-15-15h-80.3c-4,0-7.8,1.6-10.6,4.4L256,154.5L105.9,4.4C103.1,1.6,99.3,0,95.3,0H15
	C6.7,0,0,6.7,0,15v80.3c0,4,1.6,7.8,4.4,10.6L154.4,256l-27,27c-1.9-1.9-3.7-3.7-5.5-5.5c-19.1-19.1-50.3-19.1-69.4,0
	c-19.2,19.2-19.2,50.2,0,69.4c6.4,6.4,13.7,13.7,21.5,21.5c0,0-61.2,61.2-61.2,61.2c0,0,0,0,0,0C4.6,438,0,449.1,0,460.9
	C0,489.2,22.9,512,51.1,512c11.8,0,22.9-4.6,31.3-13l61.2-61.2c7.9,7.9,15.2,15.2,21.5,21.5c19.1,19.1,50.3,19.1,69.4,0
	c19.2-19.2,19.2-50.3,0-69.4c-1.7-1.7-3.6-3.6-5.4-5.4l27-27l27,27c-1.9,1.9-3.7,3.7-5.5,5.4c-19.2,19.2-19.2,50.2,0,69.4
	c19.1,19.1,50.3,19.1,69.4,0c6.4-6.4,13.7-13.7,21.5-21.5l61.2,61.2c8.3,8.4,19.4,13,31.3,13c28.1,0,51.1-22.8,51.1-51.1
	c0-11.8-4.6-22.9-12.9-31.2c0,0,0,0,0,0c0,0-61.2-61.2-61.2-61.2c7.8-7.9,15.2-15.2,21.5-21.5c19.2-19.2,19.2-50.2,0-69.4
	c-19.1-19.1-50.3-19.1-69.4,0c-1.8,1.8-3.6,3.6-5.5,5.5l-27-27l150.1-150.1C510.4,103.1,512,99.3,512,95.3z M30,89.1V30h59.1
	l145.7,145.7l-59.1,59.1L30,89.1z M61.1,477.8c-6.9,6.9-18.3,4.6-24.9-2c-6.7-6.6-8.9-18.1-2.1-25l61.2-61.2l27,27L61.1,477.8z
	 M213.3,438.2c-7.4,7.4-19.6,7.4-27,0L73.8,325.7c-7.5-7.5-7.5-19.5,0-27c7.4-7.4,19.6-7.4,27,0l112.5,112.5
	C220.8,418.7,220.7,430.7,213.3,438.2z M477.9,450.8c6.8,6.9,4.6,18.4-2.1,25c-6.5,6.6-18,8.9-24.9,2l-61.2-61.2l27-27L477.9,450.8z
	 M411.2,298.8c7.4-7.4,19.5-7.4,27,0c7.5,7.5,7.5,19.5,0,27L325.7,438.2c-7.5,7.4-19.6,7.4-27,0c-7.5-7.4-7.5-19.5,0-27L411.2,298.8
	z M363.3,304.2l-59.1,59.1l-27-27l59.1-59.1L363.3,304.2z M482,89.1L207.8,363.3l-59.1-59.1L422.9,30H482V89.1z"/>
</svg>
